<?xml version="1.0" encoding="UTF-8"?>
<svg width="512" height="512" viewBox="0 0 512 512" fill="none" xmlns="http://www.w3.org/2000/svg">
  <!-- Shield background with gradient -->
  <path d="M256 32L48 144V272C48 384 136 480 256 496C376 480 464 384 464 272V144L256 32Z" fill="url(#shield-gradient)"/>
  
  <!-- Inner shield highlight -->
  <path d="M256 64L80 160V264C80 360 152 440 256 456C360 440 432 360 432 264V160L256 64Z" fill="url(#inner-gradient)"/>
  
  <!-- "C" letter -->
  <path d="M320 192C320 148 284 112 240 112C196 112 160 148 160 192V320C160 364 196 400 240 400C284 400 320 364 320 320" 
        stroke="#FFFFFF" 
        stroke-width="48" 
        stroke-linecap="round"
        fill="none"/>
  
  <!-- Gradients -->
  <defs>
    <linearGradient id="shield-gradient" x1="256" y1="32" x2="256" y2="496">
      <stop offset="0%" stop-color="#4F46E5"/>
      <stop offset="100%" stop-color="#3730A3"/>
    </linearGradient>
    <linearGradient id="inner-gradient" x1="256" y1="64" x2="256" y2="456">
      <stop offset="0%" stop-color="#6366F1"/>
      <stop offset="100%" stop-color="#4F46E5"/>
    </linearGradient>
  </defs>
</svg> 